<svg width="41" height="40" viewBox="0 0 41 40" fill="none" xmlns="http://www.w3.org/2000/svg">
<path d="M34.6666 4.16663H6.33325L8.83325 32.5L20.4999 35.8333L32.1666 32.5L34.6666 4.16663Z" fill="#0277BD"/>
<path d="M20.5 6.66663V33.25L29.8333 30.5833L31.9167 6.66663H20.5Z" fill="#039BE5"/>
<path d="M28.0833 10.8334H20.5V14.1667H24.5833L24.3333 17.5H20.5V20.8334H24.1667L23.9167 24.5834L20.5 25.75V29.25L27.0833 27.0834L27.6667 17.5L28.0833 10.8334Z" fill="white"/>
<path d="M20.4999 10.8334V14.1667H13.0833L12.8333 10.8334H20.4999ZM16.6666 17.5L16.8333 20.8334H20.4999V17.5H16.6666ZM16.9999 22.5H13.6666L13.9166 27.0834L20.4999 29.25V25.75L17.0833 24.5834L16.9999 22.5Z" fill="#EEEEEE"/>
</svg>
