<svg width="41" height="40" viewBox="0 0 41 40" fill="none" xmlns="http://www.w3.org/2000/svg">
<path d="M35.6667 18.4166L22.0834 4.83329C21.6667 4.41663 21.0834 4.16663 20.5001 4.16663C19.9167 4.16663 19.3334 4.41663 18.9167 4.83329L16.0001 7.74996L19.4167 11.1666C19.7501 11 20.0834 10.9166 20.5001 10.9166C21.9167 10.9166 23.0001 12 23.0001 13.4166C23.0001 13.8333 22.9167 14.1666 22.7501 14.5L26.0834 17.8333C26.4167 17.6666 26.7501 17.5833 27.1667 17.5833C28.5834 17.5833 29.6667 18.6666 29.6667 20.0833C29.6667 21.5 28.5834 22.5833 27.1667 22.5833C25.7501 22.5833 24.6667 21.5 24.6667 20.0833C24.6667 19.6666 24.7501 19.3333 24.9167 19L21.5834 15.6666C21.5001 15.6666 21.4167 15.75 21.3334 15.75V24.4166C22.3334 24.75 23.0001 25.6666 23.0001 26.75C23.0001 28.1666 21.9167 29.25 20.5001 29.25C19.0834 29.25 18.0001 28.1666 18.0001 26.75C18.0001 25.6666 18.6667 24.75 19.6667 24.4166V15.6666C18.6667 15.3333 18.0001 14.4166 18.0001 13.3333C18.0001 12.9166 18.0834 12.5833 18.2501 12.25L14.8334 8.83329L5.33341 18.4166C4.91675 18.8333 4.66675 19.4166 4.66675 20C4.66675 20.5833 4.91675 21.1666 5.33341 21.5833L18.9167 35.1666C19.3334 35.5833 19.9167 35.8333 20.5001 35.8333C21.0834 35.8333 21.6667 35.5833 22.0834 35.1666L35.6667 21.5833C36.0834 21.1666 36.3334 20.5833 36.3334 20C36.3334 19.4166 36.0834 18.8333 35.6667 18.4166Z" fill="#F4511E"/>
</svg>
