<svg width="41" height="40" viewBox="0 0 41 40" fill="none" xmlns="http://www.w3.org/2000/svg">
<path d="M34.6666 4.16663H6.33325L8.83325 32.5L20.4999 35.8333L32.1666 32.5L34.6666 4.16663Z" fill="#E65100"/>
<path d="M20.5 6.66663V33.25L29.8333 30.5833L31.9167 6.66663H20.5Z" fill="#FF6D00"/>
<path d="M20.5 20.8334V17.5H27.6667L27.0833 27.0834L20.5 29.25V25.75L23.9167 24.5834L24.1667 20.8334H20.5ZM27.9167 14.1667L28.1667 10.8334H20.5V14.1667H27.9167Z" fill="white"/>
<path d="M20.5001 25.75V29.25L13.9167 27.0834L13.5834 22.5H16.9167L17.0834 24.5834L20.5001 25.75ZM16.4167 14.1667H20.5001V10.8334H12.9167L13.5001 20.8334H20.5001V17.5H16.6667L16.4167 14.1667Z" fill="#EEEEEE"/>
</svg>
