<svg width="105" height="45" viewBox="0 0 105 45" fill="none" xmlns="http://www.w3.org/2000/svg">
<path d="M7.888 22.788H19.346V27.072H7.888V22.788ZM8.296 32.58H21.25V37H2.822V13.2H20.808V17.62H8.296V32.58ZM36.3789 37V33.43L36.0389 32.648V26.256C36.0389 25.1227 35.6876 24.2387 34.9849 23.604C34.3049 22.9693 33.2509 22.652 31.8229 22.652C30.8483 22.652 29.8849 22.8107 28.9329 23.128C28.0036 23.4227 27.2103 23.8307 26.5529 24.352L24.6489 20.646C25.6463 19.9433 26.8476 19.3993 28.2529 19.014C29.6583 18.6287 31.0863 18.436 32.5369 18.436C35.3249 18.436 37.4896 19.0933 39.0309 20.408C40.5723 21.7227 41.3429 23.774 41.3429 26.562V37H36.3789ZM30.8029 37.272C29.3749 37.272 28.1509 37.034 27.1309 36.558C26.1109 36.0593 25.3289 35.3907 24.7849 34.552C24.2409 33.7133 23.9689 32.7727 23.9689 31.73C23.9689 30.642 24.2296 29.69 24.7509 28.874C25.2949 28.058 26.1449 27.4233 27.3009 26.97C28.4569 26.494 29.9643 26.256 31.8229 26.256H36.6849V29.35H32.4009C31.1543 29.35 30.2929 29.554 29.8169 29.962C29.3636 30.37 29.1369 30.88 29.1369 31.492C29.1369 32.172 29.3976 32.716 29.9189 33.124C30.4629 33.5093 31.1996 33.702 32.1289 33.702C33.0129 33.702 33.8063 33.498 34.5089 33.09C35.2116 32.6593 35.7216 32.036 36.0389 31.22L36.8549 33.668C36.4696 34.8467 35.7669 35.742 34.7469 36.354C33.7269 36.966 32.4123 37.272 30.8029 37.272ZM46.1433 37V18.708H51.2093V23.876L50.4953 22.38C51.0393 21.088 51.912 20.1133 53.1133 19.456C54.3146 18.776 55.7766 18.436 57.4993 18.436V23.332C57.2726 23.3093 57.0686 23.298 56.8873 23.298C56.706 23.2753 56.5133 23.264 56.3093 23.264C54.8586 23.264 53.68 23.6833 52.7733 24.522C51.8893 25.338 51.4473 26.6187 51.4473 28.364V37H46.1433ZM68.7639 37.272C66.6106 37.272 64.9333 36.728 63.7319 35.64C62.5306 34.5293 61.9299 32.886 61.9299 30.71V14.662H67.2339V30.642C67.2339 31.4127 67.4379 32.0133 67.8459 32.444C68.2539 32.852 68.8093 33.056 69.5119 33.056C70.3506 33.056 71.0646 32.8293 71.6539 32.376L73.0819 36.116C72.5379 36.5013 71.8806 36.796 71.1099 37C70.3619 37.1813 69.5799 37.272 68.7639 37.272ZM59.1079 23.196V19.116H71.7899V23.196H59.1079ZM87.1773 18.436C88.628 18.436 89.92 18.7307 91.0533 19.32C92.2093 19.8867 93.116 20.7707 93.7733 21.972C94.4307 23.1507 94.7593 24.6693 94.7593 26.528V37H89.4553V27.344C89.4553 25.8707 89.1267 24.7827 88.4693 24.08C87.8347 23.3773 86.928 23.026 85.7493 23.026C84.9107 23.026 84.1513 23.2073 83.4713 23.57C82.814 23.91 82.2927 24.4427 81.9073 25.168C81.5447 25.8933 81.3633 26.8227 81.3633 27.956V37H76.0593V11.772H81.3633V23.774L80.1733 22.244C80.8307 21.02 81.7713 20.0793 82.9953 19.422C84.2193 18.7647 85.6133 18.436 87.1773 18.436Z" fill="#E6B259"/>
<circle cx="101.5" cy="3.5" r="3.5" fill="white"/>
</svg>
