<svg width="41" height="40" viewBox="0 0 41 40" fill="none" xmlns="http://www.w3.org/2000/svg">
<rect x="0.5" width="40" height="40" rx="5" fill="#373737"/>
<path d="M20.5 22.8C22.0463 22.8 23.3 21.5463 23.3 20C23.3 18.4536 22.0463 17.2 20.5 17.2C18.9536 17.2 17.7 18.4536 17.7 20C17.7 21.5463 18.9536 22.8 20.5 22.8Z" fill="#39C1D7"/>
<path d="M20.5 23.2C18.7356 23.2 17.3 21.7644 17.3 20C17.3 18.2356 18.7356 16.8 20.5 16.8C22.2644 16.8 23.7 18.2356 23.7 20C23.7 21.7644 22.2644 23.2 20.5 23.2ZM20.5 17.6C19.1764 17.6 18.1 18.6764 18.1 20C18.1 21.3236 19.1764 22.4 20.5 22.4C21.8236 22.4 22.9 21.3236 22.9 20C22.9 18.6764 21.8236 17.6 20.5 17.6Z" fill="#1F212B"/>
<path d="M35.9001 20C35.9001 17.8496 33.3105 15.9884 29.2929 14.8808C30.3257 10.8424 30.0077 7.66681 28.1621 6.58921C27.4341 6.16401 26.5509 6.08641 25.5373 6.35761C24.0101 6.76641 22.2601 7.96161 20.5001 9.71721C18.7401 7.96161 16.9901 6.76681 15.4629 6.35761C14.4493 6.08601 13.5661 6.16401 12.8381 6.58921C10.9925 7.66681 10.6745 10.842 11.7073 14.8808C7.6897 15.9884 5.1001 17.8496 5.1001 20C5.1001 22.1504 7.6897 24.0116 11.7073 25.1196C10.6745 29.158 10.9925 32.3336 12.8381 33.4112C13.2829 33.6708 13.7853 33.8016 14.3405 33.8012C14.6937 33.8012 15.0685 33.7484 15.4629 33.6428C16.9901 33.2336 18.7401 32.0388 20.5001 30.2832C22.2601 32.0388 24.0101 33.2336 25.5373 33.6428C25.9317 33.7484 26.3065 33.8012 26.6597 33.8012C27.2149 33.8012 27.7173 33.6712 28.1621 33.4112C30.0077 32.3336 30.3253 29.158 29.2929 25.1196C33.3105 24.0116 35.9001 22.1504 35.9001 20ZM25.8477 7.51641C26.1377 7.43921 26.4065 7.40001 26.6541 7.40001C26.9981 7.40001 27.3005 7.47521 27.5569 7.62521C28.7937 8.34761 29.0461 10.9932 28.1249 14.5896C26.8557 14.304 25.4709 14.0892 23.9993 13.9564C23.1357 12.7112 22.2373 11.5776 21.3321 10.5848C22.9393 8.97401 24.5161 7.87321 25.8477 7.51641ZM24.8021 22.5196C24.3305 23.346 23.8341 24.1376 23.3249 24.8952C22.4209 24.9628 21.4785 25 20.5001 25C19.5217 25 18.5793 24.9628 17.6757 24.8952C17.1665 24.1376 16.6701 23.346 16.1985 22.5196C15.7109 21.6652 15.2733 20.8236 14.8813 20.0004C15.2733 19.1772 15.7109 18.3356 16.1985 17.4808C16.6705 16.654 17.1665 15.8624 17.6761 15.1048C18.5797 15.0372 19.5217 15 20.5001 15C21.4785 15 22.4205 15.0372 23.3245 15.1048C23.8337 15.8624 24.3301 16.6544 24.8021 17.4808C25.2897 18.3352 25.7273 19.1768 26.1193 20.0004C25.7273 20.8236 25.2897 21.6652 24.8021 22.5196ZM26.7577 21.418C27.1741 22.4024 27.5181 23.35 27.7965 24.2508C26.8865 24.4536 25.9041 24.6228 24.8549 24.748C25.1917 24.2176 25.5237 23.6752 25.8441 23.114C26.1685 22.5464 26.4713 21.9804 26.7577 21.418ZM20.5001 28.5428C19.8457 27.8192 19.1925 27.018 18.5545 26.1512C19.1913 26.182 19.8393 26.2 20.5001 26.2C21.1609 26.2 21.8089 26.182 22.4457 26.1512C21.8077 27.0176 21.1545 27.8188 20.5001 28.5428ZM16.1449 24.748C15.0961 24.6228 14.1133 24.4536 13.2033 24.2508C13.4817 23.35 13.8257 22.402 14.2421 21.418C14.5285 21.9804 14.8317 22.5464 15.1557 23.114C15.4765 23.6756 15.8081 24.218 16.1449 24.748ZM14.2425 18.5824C13.8261 17.598 13.4817 16.65 13.2037 15.7488C14.1137 15.546 15.0965 15.3768 16.1457 15.2516C15.8085 15.782 15.4769 16.3248 15.1565 16.886C14.8317 17.454 14.5289 18.02 14.2425 18.5824ZM20.5001 11.4576C21.1545 12.1812 21.8077 12.9824 22.4457 13.8492C21.8089 13.818 21.1609 13.8 20.5001 13.8C19.8393 13.8 19.1913 13.818 18.5545 13.8488C19.1925 12.9824 19.8457 12.1812 20.5001 11.4576ZM25.8441 16.8864C25.5237 16.3248 25.1917 15.7824 24.8549 15.252C25.9041 15.3772 26.8865 15.5464 27.7969 15.7492C27.5185 16.6504 27.1745 17.598 26.7581 18.5828C26.4713 18.02 26.1685 17.454 25.8441 16.8864ZM13.4433 7.62521C13.7001 7.47521 14.0017 7.40001 14.3461 7.40001C14.5933 7.40001 14.8629 7.43921 15.1525 7.51641C16.4841 7.87321 18.0609 8.97361 19.6681 10.5844C18.7629 11.5772 17.8645 12.7112 17.0009 13.956C15.5293 14.0888 14.1441 14.3036 12.8753 14.5892C11.9541 10.9928 12.2065 8.34721 13.4433 7.62521ZM6.3001 20C6.3001 18.5616 8.4605 17.024 12.0341 16.0396C12.4217 17.3032 12.9305 18.634 13.5565 20C12.9305 21.366 12.4217 22.6968 12.0341 23.9604C8.4605 22.976 6.3001 21.4384 6.3001 20ZM15.1525 32.4836C14.4593 32.6684 13.8845 32.632 13.4433 32.3752C12.2065 31.6528 11.9545 29.0072 12.8753 25.4108C14.1441 25.6964 15.5293 25.9112 17.0005 26.044C17.8641 27.2892 18.7625 28.4228 19.6677 29.416C18.0609 31.0264 16.4841 32.1268 15.1525 32.4836ZM27.5569 32.3752C27.1157 32.6328 26.5413 32.6688 25.8477 32.4836C24.5161 32.1268 22.9393 31.0264 21.3321 29.4156C22.2373 28.4228 23.1357 27.2888 23.9993 26.0436C25.4709 25.9108 26.8557 25.696 28.1245 25.4104C29.0461 29.0072 28.7937 31.6528 27.5569 32.3752ZM28.9661 23.9604C28.5785 22.6968 28.0697 21.366 27.4437 20C28.0697 18.634 28.5785 17.3028 28.9661 16.0396C32.5397 17.024 34.7001 18.5616 34.7001 20C34.7001 21.4384 32.5397 22.976 28.9661 23.9604Z" fill="#39C1D7"/>
<path d="M14.3379 34.0008C13.7495 34.0008 13.2111 33.8604 12.7375 33.5836C10.8847 32.5016 10.4243 29.4732 11.4663 25.2592C7.2899 24.0716 4.8999 22.16 4.8999 20C4.8999 17.84 7.2899 15.9284 11.4659 14.7408C10.4243 10.5268 10.8847 7.4984 12.7375 6.4164C13.5127 5.9628 14.4467 5.878 15.5147 6.1644C17.0019 6.5628 18.7227 7.6924 20.4999 9.436C22.2775 7.6924 23.9983 6.5628 25.4851 6.1644C26.5527 5.8788 27.4871 5.9636 28.2627 6.4164C30.1151 7.4984 30.5755 10.5268 29.5339 14.7408C33.7099 15.9284 36.0999 17.84 36.0999 20C36.0999 22.16 33.7099 24.0716 29.5339 25.2592C30.5755 29.4732 30.1155 32.5012 28.2627 33.5836C27.4919 34.0336 26.5483 34.1204 25.4855 33.8356C23.9979 33.4372 22.2771 32.3076 20.4999 30.5644C18.7227 32.3076 17.0019 33.4376 15.5147 33.8356C15.1055 33.9452 14.7103 34.0008 14.3403 34.0008C14.3395 34.0008 14.3387 34.0008 14.3379 34.0008ZM14.3415 6.3996C13.8211 6.3996 13.3519 6.5204 12.9387 6.762C11.2491 7.7488 10.8611 10.7652 11.9007 14.8312C11.9275 14.9368 11.8651 15.0448 11.7599 15.0736C7.7151 16.1888 5.2999 18.0308 5.2999 20C5.2999 21.9692 7.7151 23.8112 11.7603 24.9264C11.8655 24.9552 11.9279 25.0632 11.9011 25.1688C10.8611 29.2348 11.2491 32.2516 12.9387 33.238C13.3507 33.4784 13.8215 33.6004 14.3379 33.6004C14.3387 33.6004 14.3395 33.6004 14.3403 33.6004C14.6755 33.6004 15.0355 33.5496 15.4111 33.4492C16.8699 33.0584 18.5811 31.9148 20.3587 30.1412C20.4367 30.0636 20.5631 30.0636 20.6411 30.1412C22.4187 31.9144 24.1299 33.058 25.5887 33.4492C26.5463 33.7048 27.3827 33.6336 28.0611 33.238C29.7507 32.2512 30.1387 29.2348 29.0987 25.1688C29.0719 25.0632 29.1343 24.9552 29.2395 24.9264C33.2847 23.8112 35.6999 21.9692 35.6999 20C35.6999 18.0308 33.2847 16.1888 29.2395 15.0736C29.1343 15.0448 29.0719 14.9368 29.0987 14.8312C30.1383 10.7652 29.7503 7.7484 28.0607 6.762C27.3811 6.3648 26.5491 6.294 25.5883 6.5508C24.1295 6.9416 22.4187 8.0852 20.6407 9.8588C20.5627 9.9364 20.4363 9.9364 20.3583 9.8588C18.5803 8.0852 16.8695 6.9416 15.4107 6.5508C15.0343 6.45 14.6775 6.3996 14.3415 6.3996ZM26.6543 32.7996C26.3891 32.7996 26.1027 32.7588 25.7959 32.6768C24.4635 32.3196 22.8711 31.2412 21.1903 29.5568C21.1151 29.4812 21.1123 29.3596 21.1839 29.2808C22.0899 28.2872 22.9815 27.1596 23.8347 25.9296C23.8683 25.8808 23.9219 25.8496 23.9811 25.8444C25.4259 25.714 26.8051 25.5024 28.0807 25.2152C28.1851 25.1916 28.2915 25.2556 28.3183 25.3608C29.2527 29.01 28.9995 31.764 27.6575 32.5476C27.3699 32.7156 27.0343 32.7996 26.6543 32.7996ZM21.6083 29.4084C23.1887 30.966 24.6695 31.9608 25.8991 32.2904C26.5387 32.4612 27.0627 32.4316 27.4559 32.2024C28.5979 31.5352 28.7987 28.9732 27.9783 25.6476C26.7671 25.9112 25.4675 26.1084 24.1103 26.2344C23.3039 27.3912 22.4631 28.4576 21.6083 29.4084ZM14.3455 32.7996C13.9655 32.7996 13.6299 32.7156 13.3423 32.548C12.0003 31.764 11.7467 29.01 12.6815 25.3608C12.7083 25.256 12.8147 25.1932 12.9191 25.2152C14.1943 25.5024 15.5735 25.714 17.0187 25.8444C17.0775 25.8496 17.1315 25.8808 17.1651 25.9296C18.0183 27.1596 18.9099 28.2872 19.8159 29.2808C19.8879 29.3596 19.8851 29.4812 19.8095 29.5568C18.1287 31.2408 16.5363 32.3196 15.2043 32.6768C14.8971 32.7584 14.6103 32.7996 14.3455 32.7996ZM13.0215 25.6476C12.2011 28.9728 12.4019 31.5352 13.5439 32.2024C13.9367 32.4312 14.4607 32.4612 15.1007 32.2904C16.3303 31.9608 17.8111 30.9656 19.3915 29.4084C18.5371 28.4576 17.6963 27.3912 16.8899 26.2344C15.5327 26.1084 14.2327 25.9112 13.0215 25.6476ZM20.4999 28.7424C20.4435 28.7424 20.3895 28.7184 20.3515 28.6764C19.6863 27.9408 19.0275 27.1308 18.3931 26.2692C18.3475 26.2072 18.3415 26.124 18.3779 26.056C18.4143 25.988 18.4823 25.9464 18.5639 25.9508C19.8863 26.0152 21.1135 26.0152 22.4359 25.9508C22.5159 25.946 22.5855 25.988 22.6219 26.056C22.6583 26.124 22.6527 26.2068 22.6067 26.2692C21.9723 27.1304 21.3135 27.9404 20.6483 28.6764C20.6103 28.7184 20.5563 28.7424 20.4999 28.7424ZM18.9667 26.3696C19.4671 27.0316 19.9815 27.66 20.4999 28.2432C21.0187 27.66 21.5327 27.032 22.0331 26.3696C20.9883 26.4096 20.0115 26.4096 18.9667 26.3696ZM20.4999 25.2C19.5523 25.2 18.5971 25.1648 17.6603 25.0948C17.5991 25.0904 17.5435 25.058 17.5091 25.0068C16.9743 24.2112 16.4747 23.4076 16.0243 22.6188C15.5523 21.7916 15.1067 20.9396 14.7003 20.086C14.6743 20.0316 14.6743 19.9684 14.7003 19.914C15.1067 19.0604 15.5523 18.2084 16.0243 17.3812C16.4743 16.5932 16.9739 15.7896 17.5095 14.9928C17.5435 14.942 17.5995 14.9096 17.6607 14.9048C19.5343 14.7648 21.4659 14.7648 23.3391 14.9048C23.4003 14.9092 23.4559 14.9416 23.4903 14.9928C24.0259 15.7896 24.5255 16.5932 24.9755 17.3812C25.4475 18.2084 25.8931 19.0604 26.2995 19.914C26.3255 19.9684 26.3255 20.0316 26.2995 20.086C25.8931 20.9396 25.4475 21.7916 24.9755 22.6188C24.5251 23.4076 24.0255 24.2112 23.4907 25.0068C23.4567 25.0576 23.4007 25.09 23.3395 25.0948C22.4027 25.1648 21.4475 25.2 20.4999 25.2ZM17.7871 24.7028C19.5787 24.8316 21.4211 24.8316 23.2123 24.7028C23.7215 23.9416 24.1975 23.174 24.6279 22.42C25.0791 21.6292 25.5059 20.8156 25.8971 20C25.5059 19.1844 25.0791 18.3704 24.6279 17.58C24.1979 16.8268 23.7219 16.0592 23.2119 15.2968C21.4203 15.168 19.5783 15.168 17.7867 15.2968C17.2771 16.0592 16.8007 16.8268 16.3707 17.58C15.9195 18.3708 15.4927 19.1844 15.1015 20C15.4927 20.8156 15.9195 21.6296 16.3707 22.42C16.8019 23.1744 17.2779 23.9416 17.7871 24.7028ZM24.8551 24.9484C24.7871 24.9484 24.7227 24.9136 24.6859 24.8552C24.6447 24.7896 24.6451 24.7064 24.6863 24.6412C25.0575 24.0568 25.3795 23.5248 25.6703 23.0152C25.9759 22.48 26.2815 21.912 26.5795 21.3276C26.6147 21.2584 26.6887 21.2172 26.7647 21.2188C26.8423 21.2216 26.9115 21.2688 26.9419 21.3408C27.3479 22.3004 27.6995 23.26 27.9875 24.1924C28.0043 24.2456 27.9975 24.3036 27.9695 24.3516C27.9415 24.4 27.8943 24.4344 27.8399 24.4464C26.8999 24.6564 25.9035 24.8248 24.8787 24.9472C24.8707 24.948 24.8627 24.9484 24.8551 24.9484ZM26.7383 21.8924C26.5007 22.3476 26.2591 22.7904 26.0179 23.2132C25.7847 23.622 25.5315 24.0448 25.2499 24.4968C26.0379 24.392 26.8059 24.2596 27.5407 24.102C27.3099 23.3764 27.0411 22.636 26.7383 21.8924ZM16.1447 24.9484C16.1367 24.9484 16.1287 24.948 16.1207 24.9472C15.0963 24.8244 14.0999 24.656 13.1599 24.446C13.1055 24.434 13.0587 24.3996 13.0303 24.3512C13.0023 24.3028 12.9959 24.2452 13.0123 24.192C13.3003 23.2592 13.6519 22.3 14.0579 21.3404C14.0883 21.2688 14.1575 21.2212 14.2351 21.2184C14.3079 21.2108 14.3851 21.258 14.4203 21.3272C14.7183 21.9116 15.0239 22.4796 15.3295 23.0148C15.6207 23.5244 15.9427 24.0564 16.3135 24.6408C16.3551 24.706 16.3551 24.7892 16.3139 24.8548C16.2771 24.9136 16.2131 24.9484 16.1447 24.9484ZM13.4595 24.102C14.1943 24.2596 14.9623 24.392 15.7503 24.4968C15.4683 24.0448 15.2155 23.622 14.9823 23.2132C14.7407 22.7904 14.4995 22.3472 14.2619 21.8924C13.9587 22.636 13.6899 23.3764 13.4595 24.102ZM28.9659 24.1604C28.8799 24.1604 28.8011 24.1048 28.7747 24.0188C28.3847 22.7472 27.8755 21.4232 27.2619 20.0836C27.2375 20.0308 27.2375 19.9696 27.2619 19.9168C27.8755 18.5772 28.3847 17.2528 28.7751 15.9808C28.8071 15.8772 28.9167 15.8192 29.0195 15.8468C32.6467 16.8464 34.8999 18.4376 34.8999 20C34.8999 21.5624 32.6463 23.1536 29.0187 24.1532C29.0011 24.158 28.9831 24.1604 28.9659 24.1604ZM27.6635 20C28.2379 21.262 28.7207 22.5108 29.0991 23.7152C32.3867 22.778 34.4999 21.3288 34.4999 20C34.4999 18.6712 32.3867 17.222 29.0991 16.2848C28.7203 17.4896 28.2375 18.7384 27.6635 20ZM12.0339 24.1604C12.0163 24.1604 11.9987 24.158 11.9807 24.1532C8.3535 23.1536 6.0999 21.5624 6.0999 20C6.0999 18.4376 8.3531 16.8464 11.9807 15.8468C12.0839 15.8192 12.1931 15.8772 12.2251 15.9808C12.6155 17.2528 13.1247 18.5772 13.7383 19.9168C13.7627 19.9696 13.7627 20.0304 13.7383 20.0836C13.1243 21.4236 12.6155 22.7476 12.2255 24.0188C12.1991 24.1048 12.1199 24.1604 12.0339 24.1604ZM11.9007 16.2848C8.6131 17.222 6.4999 18.6712 6.4999 20C6.4999 21.3288 8.6131 22.778 11.9007 23.7152C12.2795 22.5108 12.7619 21.2624 13.3363 20C12.7623 18.7384 12.2795 17.4896 11.9007 16.2848ZM26.7579 18.7828C26.6827 18.7828 26.6139 18.7408 26.5795 18.6736C26.2767 18.0784 25.9791 17.526 25.6707 16.9856C25.3803 16.4768 25.0583 15.9448 24.6863 15.3592C24.6447 15.294 24.6447 15.2108 24.6859 15.1452C24.7271 15.08 24.8007 15.044 24.8791 15.0532C25.9043 15.176 26.9007 15.3444 27.8407 15.554C27.8951 15.566 27.9419 15.6004 27.9703 15.6488C27.9983 15.6972 28.0047 15.7548 27.9883 15.808C27.6999 16.7424 27.3479 17.702 26.9427 18.6604C26.9123 18.732 26.8431 18.7796 26.7655 18.7824C26.7623 18.7828 26.7599 18.7828 26.7579 18.7828ZM26.0175 16.7872C26.2619 17.2152 26.4995 17.6504 26.7379 18.108C27.0403 17.3656 27.3091 16.6244 27.5399 15.898C26.8051 15.7404 26.0371 15.608 25.2487 15.5032C25.5319 15.956 25.7847 16.3788 26.0175 16.7872ZM14.2419 18.7828C14.2395 18.7828 14.2371 18.7828 14.2347 18.7828C14.1571 18.78 14.0879 18.7328 14.0575 18.6608C13.6523 17.7024 13.3003 16.7428 13.0119 15.8084C12.9951 15.7552 13.0019 15.6972 13.0299 15.6492C13.0579 15.6008 13.1051 15.5664 13.1595 15.5544C14.0995 15.3444 15.0959 15.176 16.1211 15.0536C16.1991 15.0456 16.2731 15.0804 16.3143 15.1456C16.3555 15.2112 16.3551 15.2944 16.3139 15.3596C15.9419 15.9452 15.6199 16.4772 15.3295 16.986C15.0211 17.5264 14.7235 18.0784 14.4207 18.674C14.3859 18.7408 14.3171 18.7828 14.2419 18.7828ZM13.4595 15.898C13.6903 16.6244 13.9595 17.3656 14.2615 18.108C14.5003 17.6504 14.7375 17.2152 14.9819 16.7872C15.2151 16.3788 15.4679 15.956 15.7503 15.5032C14.9623 15.608 14.1943 15.7404 13.4595 15.898ZM28.1251 14.7896C28.1103 14.7896 28.0959 14.788 28.0811 14.7848C26.8059 14.4976 25.4263 14.286 23.9811 14.1556C23.9223 14.1504 23.8683 14.1192 23.8347 14.0704C22.9815 12.84 22.0895 11.7128 21.1839 10.7196C21.1119 10.6408 21.1147 10.5192 21.1903 10.4436C22.8707 8.7596 24.4635 7.6804 25.7959 7.3236C26.5435 7.1236 27.1711 7.1688 27.6575 7.4524C28.9995 8.2364 29.2531 10.9904 28.3187 14.6396C28.2955 14.7292 28.2147 14.7896 28.1251 14.7896ZM24.1099 13.7656C25.4671 13.8916 26.7671 14.0888 27.9783 14.3524C28.7987 11.0272 28.5979 8.4648 27.4555 7.7976C27.0639 7.5692 26.5391 7.5392 25.8991 7.7096C24.6695 8.0392 23.1883 9.0344 21.6079 10.592C22.4627 11.542 23.3035 12.6084 24.1099 13.7656ZM12.8747 14.7896C12.7851 14.7896 12.7043 14.7292 12.6811 14.6392C11.7467 10.99 11.9999 8.2364 13.3419 7.4524C13.8283 7.1688 14.4571 7.1236 15.2035 7.3236C16.5363 7.6808 18.1287 8.7596 19.8091 10.4436C19.8843 10.5192 19.8871 10.6408 19.8155 10.7196C18.9099 11.7128 18.0179 12.8404 17.1647 14.0704C17.1311 14.1192 17.0775 14.1504 17.0183 14.1556C15.5735 14.286 14.1939 14.4976 12.9183 14.7848C12.9039 14.788 12.8895 14.7896 12.8747 14.7896ZM13.5439 7.7976C12.4019 8.4648 12.2011 11.0272 13.0211 14.3524C14.2323 14.0888 15.5323 13.8916 16.8895 13.7656C17.6963 12.6084 18.5367 11.542 19.3911 10.5916C17.8107 9.034 16.3299 8.0388 15.0999 7.7092C14.4627 7.5392 13.9371 7.5688 13.5439 7.7976ZM22.4455 14.0488C22.4423 14.0488 22.4391 14.0488 22.4359 14.0488C21.1135 13.9844 19.8867 13.9844 18.5643 14.0488C18.4819 14.0508 18.4147 14.0112 18.3783 13.9436C18.3419 13.8756 18.3475 13.7928 18.3935 13.7304C19.0283 12.8684 19.6871 12.0584 20.3519 11.3232C20.4279 11.2396 20.5727 11.2396 20.6487 11.3232C21.3131 12.058 21.9719 12.868 22.6071 13.7304C22.6527 13.7924 22.6587 13.8756 22.6223 13.9436C22.5867 14.0084 22.5187 14.0488 22.4455 14.0488ZM20.4999 13.6C20.9967 13.6 21.5107 13.6104 22.0331 13.6308C21.5323 12.968 21.0179 12.3396 20.4999 11.7572C19.9819 12.34 19.4675 12.968 18.9667 13.6308C19.4891 13.6104 20.0031 13.6 20.4999 13.6Z" fill="#1F212B"/>
</svg>
