<svg width="41" height="40" viewBox="0 0 41 40" fill="none" xmlns="http://www.w3.org/2000/svg">
<path d="M19.6667 3.33337C14.1526 3.33337 9.66675 9.39171 9.66675 16.8375C9.66675 20.8659 10.9851 24.4784 13.0651 26.9509C13.0251 27.1284 13.0001 27.3109 13.0001 27.5C13.0001 28.8809 14.1192 30 15.5001 30C16.8809 30 18.0001 28.8809 18.0001 27.5C18.0001 26.1192 16.8809 25 15.5001 25C15.2376 25 14.9901 25.0517 14.7526 25.1267C13.1717 23.1092 12.1667 20.1459 12.1667 16.8375C12.1667 10.77 15.5309 5.83337 19.6667 5.83337C22.8642 5.83337 25.5926 8.78921 26.6701 12.9317C27.6051 13.22 28.5342 13.5834 29.4451 14.0217C28.4826 7.92337 24.4659 3.33337 19.6667 3.33337Z" fill="#7E57C2"/>
<path d="M30.0892 16.7367C26.8 14.7434 23.1108 13.8684 19.9375 14.2709C19.4792 13.7034 18.7858 13.3334 18 13.3334C16.6192 13.3334 15.5 14.4525 15.5 15.8334C15.5 17.2142 16.6192 18.3334 18 18.3334C19.06 18.3334 19.9608 17.6709 20.3242 16.74C22.9225 16.4242 26.0008 17.1825 28.7933 18.8759C34.1292 22.11 36.8517 27.6834 34.8617 31.3017C34.1725 32.555 32.9567 33.445 31.3467 33.8767C29.4417 34.3859 27.1742 34.205 24.9075 33.4367C24.2083 34.08 23.45 34.685 22.6367 35.2434C24.7633 36.1742 26.9667 36.6634 29.0275 36.6634C30.0608 36.6634 31.0592 36.5409 31.9933 36.2909C34.2775 35.68 36.0275 34.3709 37.0525 32.5059C39.68 27.73 36.5558 20.6559 30.0892 16.7367Z" fill="#7E57C2"/>
<path d="M29.6667 24.16C29.6667 22.7834 28.5475 21.6667 27.1667 21.6667C25.7859 21.6667 24.6667 22.7834 24.6667 24.16C24.6667 24.7175 24.8567 25.2275 25.1667 25.6425C24.1009 27.9775 22.0467 30.2817 19.2817 31.9575C16.0609 33.9109 12.4609 34.6259 9.65252 33.8759C8.04252 33.4442 6.82669 32.5542 6.13752 31.3009C4.71919 28.7225 5.70336 25.1542 8.31252 22.1442C8.04336 21.1909 7.84419 20.1942 7.72419 19.165C3.49919 23.1625 1.80002 28.6009 3.94752 32.5059C4.97252 34.3709 6.72252 35.68 9.00669 36.2909C9.94086 36.5409 10.9384 36.6634 11.9725 36.6634C14.7609 36.6634 17.8117 35.7734 20.5775 34.0967C23.7742 32.1592 26.1467 29.4492 27.4184 26.6284C28.6792 26.5009 29.6667 25.4509 29.6667 24.16Z" fill="#7E57C2"/>
</svg>
