<svg width="41" height="40" viewBox="0 0 41 40" fill="none" xmlns="http://www.w3.org/2000/svg">
<path d="M35.5 5H5.5V35H35.5V5Z" fill="#1976D2"/>
<path d="M23.4085 18.3334H12.356V21.0534H16.3201V33.3334H19.461V21.0534H23.4085V18.3334Z" fill="white"/>
<path d="M33.1618 21.7367C33.1618 21.7367 31.6726 20.7433 29.9893 20.7433C28.306 20.7433 27.7001 21.5433 27.7001 22.3983C27.7001 24.605 33.851 24.3842 33.851 28.825C33.851 35.6658 24.4726 32.6317 24.4726 32.6317V29.35C24.4726 29.35 26.266 30.7017 28.4168 30.7017C30.5676 30.7017 30.486 29.295 30.486 29.1017C30.486 27.0608 24.3901 27.0608 24.3901 22.5367C24.3901 16.3858 33.2718 18.8125 33.2718 18.8125L33.1618 21.7367Z" fill="white"/>
</svg>
