<svg width="41" height="40" viewBox="0 0 41 40" fill="none" xmlns="http://www.w3.org/2000/svg">
<path d="M37.8833 8.31332L21.3524 37.8733C21.0108 38.4833 20.1341 38.4875 19.7874 37.88L2.9291 8.31582C2.5516 7.65415 3.11743 6.85248 3.86743 6.98665L20.4166 9.94498C20.5224 9.96415 20.6299 9.96332 20.7358 9.94415L36.9383 6.99082C37.6858 6.85415 38.2541 7.64998 37.8833 8.31332Z" fill="url(#paint0_linear_8_2)"/>
<path d="M28.4784 2.50837L16.3492 4.88504C16.15 4.9242 16.0025 5.09337 15.99 5.29587L15.2442 17.8967C15.2267 18.1934 15.4992 18.4242 15.7892 18.3567L19.1659 17.5775C19.4817 17.505 19.7675 17.7825 19.7025 18.1009L18.6992 23.0134C18.6317 23.3442 18.9417 23.6267 19.265 23.5284L21.3509 22.895C21.6742 22.7967 21.985 23.08 21.9167 23.4117L20.3225 31.1284C20.2225 31.6109 20.865 31.8742 21.1325 31.46L21.3117 31.1834L31.195 11.4592C31.3609 11.1292 31.075 10.7525 30.7125 10.8225L27.2367 11.4934C26.91 11.5567 26.6325 11.2525 26.7242 10.9325L28.9925 3.06754C29.0842 2.7492 28.8059 2.4442 28.4784 2.50837Z" fill="url(#paint1_linear_8_2)"/>
<defs>
<linearGradient id="paint0_linear_8_2" x1="11.5958" y1="-0.755015" x2="32.1708" y2="27.1858" gradientUnits="userSpaceOnUse">
<stop stop-color="#41D1FF"/>
<stop offset="1" stop-color="#9231BE"/>
</linearGradient>
<linearGradient id="paint1_linear_8_2" x1="21.7517" y1="4.36337" x2="31.4425" y2="70.8417" gradientUnits="userSpaceOnUse">
<stop stop-color="#FED100"/>
<stop offset="1" stop-color="#E36001"/>
</linearGradient>
</defs>
</svg>
